<svg width="298" height="34" viewBox="0 0 298 34" fill="none" xmlns="http://www.w3.org/2000/svg">
<path d="M16.9064 1.06139H0V32.903H16.9064C30.2874 32.903 34.7225 26.1556 34.7225 16.9822C34.7225 7.73296 30.2874 1.06139 16.9064 1.06139ZM16.9443 22.4786H12.5092V11.4478H16.9443C19.6356 11.4478 22.2133 12.5471 22.2133 16.9822C22.2133 21.3414 19.6356 22.4786 16.9443 22.4786Z" fill="black"/>
<path d="M59.4915 32.903H72.3419L61.0457 1.06139H43.6086L32.3125 32.903H45.1628L46.2242 29.4535H58.4681L59.4915 32.903ZM48.9914 20.318L51.3037 12.6987H53.3886L55.7009 20.318H48.9914Z" fill="black"/>
<path d="M73.4738 32.903H85.6039V18.4984H86.7411L94.8152 32.903H108.727V1.06139H96.5968V15.4659H95.4975L87.7267 1.06139H73.4738V32.903Z" fill="black"/>
<path d="M128.637 33.9644C137.014 33.9644 145.429 30.3253 146.15 18.5364H134.323C133.754 21.7205 131.745 23.2368 128.637 23.2368C125.453 23.2368 122.837 20.9245 122.837 16.9822C122.837 13.0399 125.453 10.7276 128.637 10.7276C131.745 10.7276 133.754 12.2059 134.323 15.3143H146.15C145.429 3.60113 136.938 0 128.637 0C117.644 0 110.442 6.63366 110.442 16.9822C110.442 27.2928 117.644 33.9644 128.637 33.9644Z" fill="black"/>
<path d="M166.267 33.9644C177.564 33.9644 184.652 27.2928 184.652 16.9822C184.652 6.63366 177.564 0 166.267 0C154.933 0 147.845 6.63366 147.845 16.9822C147.845 27.2928 154.933 33.9644 166.267 33.9644ZM166.267 23.2368C163.083 23.2368 160.24 21.1898 160.24 16.9822C160.24 12.7366 163.083 10.7276 166.267 10.7276C169.414 10.7276 172.295 12.7366 172.295 16.9822C172.295 21.1898 169.414 23.2368 166.267 23.2368Z" fill="black"/>
<path d="M221.148 32.903L215.765 22.7061C218.153 20.8108 219.897 17.854 219.897 13.7222C219.897 4.70043 214.628 1.06139 205.606 1.06139H186.35V32.903H198.821V25.5112H205.227L208.942 32.903H221.148ZM198.821 11.372H204.659C206.554 11.372 207.388 12.3576 207.388 13.8359C207.388 15.3143 206.554 16.2999 204.659 16.2999H198.821V11.372Z" fill="black"/>
<path d="M222.909 32.903H235.38V26.9516H242.014C250.77 26.9516 256.267 23.1989 256.267 13.9876C256.267 4.77624 250.77 1.06139 241.938 1.06139H222.909V32.903ZM235.38 16.641V11.372H240.839C242.507 11.372 243.682 12.2438 243.682 13.9876C243.682 15.7313 242.507 16.641 240.763 16.641H235.38Z" fill="black"/>
<path d="M257.493 32.903H262.429V20.299H257.493V32.903Z" fill="black"/>
<path d="M263.331 32.903H268.132V27.2012H268.582L271.778 32.903H277.285V20.299H272.483V26.0008H272.048L268.972 20.299H263.331V32.903Z" fill="black"/>
<path d="M285.166 33.3231C288.482 33.3231 291.813 31.8827 292.098 27.2162H287.417C287.192 28.4766 286.396 29.0768 285.166 29.0768C283.906 29.0768 282.87 28.1615 282.87 26.601C282.87 25.0405 283.906 24.1252 285.166 24.1252C286.396 24.1252 287.192 24.7104 287.417 25.9408H292.098C291.813 21.3043 288.452 19.8789 285.166 19.8789C280.815 19.8789 277.964 22.5047 277.964 26.601C277.964 30.6823 280.815 33.3231 285.166 33.3231Z" fill="black"/>
<path d="M295.196 33.1431C296.487 33.1431 297.582 32.0627 297.582 30.7873C297.582 29.5119 296.487 28.4466 295.196 28.4466C293.906 28.4466 292.811 29.5119 292.811 30.7873C292.811 32.0627 293.906 33.1431 295.196 33.1431Z" fill="black"/>
</svg>
